#!OML:ASF F:\VICON\USERDATA\INSTALL\rory3\rory3.ASF
:FULLY-SPECIFIED
:DEGREES
18
root -0.14800052064920982 18.102882241774342 -16.937259112265608 0.8605645640675932 -2.46575301683177 -5.7673257168969645
lfemur -34.26804114967475 1.6883181493943982 -13.30555344733742
ltibia 63.301891102361544
lfoot -2.0934595046699 -0.03784424204928527
ltoes -3.4839310988024037
rfemur -2.847836362062978 7.707832376159029 35.597035969411536
rtibia 36.98421807228168
rfoot -16.61291794165435 -9.346458539539556
rtoes 3.2301493371021737
lowerback 15.597454375230711 0.8517387772526251 5.276213565004909
upperback -1.115039906777499 2.0579757420399463 2.01434885334862
thorax -9.377334759150395 0.8315194579554709 -1.2935720408386675
lowerneck -17.42808615252403 -4.292771736096192 -2.0196589070738282
upperneck 16.737325551526833 -5.2989108937641225 1.0770721345322636
head 8.206875439347227 -2.645137342604033 0.06591083970351269
lclavicle -1.6751861253689564e-15 -3.5918678150058164e-15
lhumerus -48.562801989293504 -1.2745514126211632 89.54497949054978
lradius 68.2096672046375
lwrist 16.009586744303643
lhand -28.1694240172721 10.701281157842395
lfingers 7.125019999999999
lthumb -1.5493258366154756 40.64977716929783
rclavicle -1.6751861253689564e-15 -3.5918678150058164e-15
rhumerus -34.06590106819676 2.395841761968817 -92.21401320538324
rradius 73.00170283832713
rwrist -9.38470162514483
rhand -18.838196240892223 28.828232412377314
rfingers 7.125019999999999
rthumb 7.461330239095308 -1.0262819749828758
19
root -0.1534125699623094 18.01369161072422 -16.07368990613969 1.8653391721675086 -2.303763334246728 -6.281067066601062
lfemur -35.24677606393862 -1.3538821350089212 -11.712692078804261
ltibia 46.75705600319327
lfoot 0.39861986967858365 3.257638696188039
ltoes -1.2461111869821586
rfemur 1.4213628750444531 7.8207905916092955 36.52566968047982
rtibia 33.295423226826486
rfoot -17.708534418662143 -9.96250410755411
rtoes 0.6574852884741147
lowerback 14.265525729847475 1.1448068449359916 5.838886891732747
upperback -1.075998354167628 2.4830682151725942 1.9443204854970257
thorax -8.718979451193361 1.022887397650366 -1.7135065593919616
lowerneck -17.602157453770058 -4.4603694068107025 -1.9814558038459702
upperneck 16.386670726269745 -5.5017686596864435 1.0915206985130554
head 8.11643686303236 -2.747611188869679 0.043954976118439154
lclavicle -1.6751861098668111e-15 -3.591867797393633e-15
lhumerus -49.132866397731426 0.1315773018383446 88.8443163914681
lradius 65.92686218963499
lwrist 15.454910549759646
lhand -28.4992890731384 8.694163526055474
lfingers 7.125019999999999
lthumb -1.8678830358405252 38.64294850220812
rclavicle -1.6751861098668111e-15 -3.591867797393633e-15
rhumerus -32.200128423173034 4.057086912767448 -92.7009351036751
rradius 76.33945923465885
rwrist -10.615490513168488
rhand -18.97536445443157 30.133007332079043
rfingers 7.125019999999999
rthumb 7.328888192410742 0.2663840481547357
20
root -0.1383336123687937 17.806908860542453 -15.166014493349502 3.064612622223475 -2.9021102802515033 -6.782031066293707
lfemur -34.66635343181184 -4.3046948283333055 -9.793987838190514
ltibia 28.667219710837873
lfoot 0.4346728404712292 5.201973052722094
ltoes -9.218077229013364
rfemur 4.993331202569019 7.050392812388336 37.042834248694945
rtibia 31.199093943195663
rfoot -19.50404592676799 -9.397159364956824
rtoes -1.9847864618496827
lowerback 12.693892378986376 1.5982169313668066 6.326960852385637
upperback -1.2201522849332123 3.11231223192196 1.9237811229694863
thorax -8.112732422564365 1.3128303842709985 -2.067561370134417
lowerneck -18.220590584105054 -4.370166470345074 -1.6791566681973489
upperneck 16.312541232986174 -5.4508832483129845 0.7862201867451885
head 8.14204336250265 -2.703717818499345 -0.13403356527710347
lclavicle -1.6751860805900337e-15 -3.591867723312262e-15
lhumerus -49.91363945029865 1.1173663540779097 88.22805512107766
lradius 63.962411361669915
lwrist 13.615359850884857
lhand -28.7905358161498 6.420450089412538
lfingers 7.125019999999999
lthumb -2.149186215509375 36.369376491762495
rclavicle -1.6751860805900337e-15 -3.591867723312262e-15
rhumerus -30.143556124293042 4.436952860639615 -92.78773171847098
rradius 77.77620043124574
rwrist -11.064403681287416
rhand -20.407652200181623 28.433118788161224
rfingers 7.125019999999999
rthumb 5.946372034224733 -1.4984208355172512
21
root -0.06714833594904221 17.648077400220433 -13.049829351277792 2.917018515494667 -2.6345596796310247 -6.116397221172093
lfemur -32.334474699531214 -6.700011670219351 -10.977109479079198
ltibia 19.426081380099887
lfoot 0.3634408836895886 6.215368908763233
ltoes -6.30761134157122
rfemur 9.053536740008715 6.56588542008639 36.50142007762599
rtibia 30.178890653338346
rfoot -19.632727168296913 -8.744452425302095
rtoes -5.217682591273796
lowerback 11.924277470563796 1.6181919718725128 6.031143112151275
upperback -1.3723648303931613 2.960478987962728 1.7907475151596137
thorax -8.02954114227996 1.2463808208367921 -1.9194852646812917
lowerneck -17.801787349881817 -4.488810922093107 -1.8081469041707166
upperneck 16.194932915015293 -5.963835809679706 1.295972778849408
head 8.071821309937503 -2.7825814784020793 -0.04034596319111727
lclavicle -1.6740837356874224e-15 -3.591111420600528e-15
lhumerus -49.72530721773907 1.5257256566945854 87.80009178112313
lradius 62.57786362955953
lwrist 12.805996251434197
lhand -28.469691532334824 10.37886882714647
lfingers 7.125019999999999
lthumb -1.8504946929459645 40.641364832311325
rclavicle -1.6767066819937994e-15 -3.59294315589285e-15
rhumerus -29.844455736399034 4.04967089944576 -92.64221391932742
rradius 79.18874725081155
rwrist -9.94881854504077
rhand -19.349120825150926 28.44481590124665
rfingers 7.125019999999999
rthumb 6.799271057490278 -1.8762546101737447
22
root 0.013620058610183922 17.453161185884817 -11.752594338397087 2.5186526320430147 -2.254910717000535 -5.557279983711482
lfemur -31.408970926867585 -5.012840969077999 -12.920663460304532
ltibia 17.695275580167237
lfoot 1.858401106839257 2.9983329557173324
ltoes -8.25215516625983
rfemur 12.016841346522087 6.067079502178462 35.719811616107165
rtibia 32.314881201908634
rfoot -18.769066754386056 -7.581821690743078
rtoes -9.175060179251549
lowerback 11.240502143087339 1.5983087676377903 5.631205870153096
upperback -1.4605306285719912 2.9598965568232893 1.5522545196689617
thorax -7.9407048871069925 1.2630080538412654 -1.7872348122275106
lowerneck -17.25548004225121 -4.69982827053696 -1.9486331747382708
upperneck 15.92558639245074 -6.295189280682767 1.8079350471175322
head 7.939206079945366 -2.8951829508560074 0.08389767620258534
lclavicle -1.6721968355715368e-15 -3.589769948127957e-15
lhumerus -49.479457449241444 1.805165961714211 87.26863948511937
lradius 61.98861489252576
lwrist 14.381459596662125
lhand -28.762386958356952 11.211054867042025
lfingers 7.125019999999999
lthumb -2.08717026785136 41.27825680567219
rclavicle -1.6781112530929502e-15 -3.593936427428287e-15
rhumerus -30.367547695916045 3.1759110315964856 -92.38599035730469
rradius 80.02915232673993
rwrist -9.330109261673226
rhand -18.986698825598488 28.136546207869056
rfingers 7.125019999999999
rthumb 7.024043233174395 -2.524283566317414
